<svg version="1.1" viewBox="0 0 5600 5600" xmlns="http://www.w3.org/2000/svg">
<g transform="matrix(1.3333 0 0 -1.3333 0 5600)">
<g transform="scale(.1)">
<g transform="scale(2.5767)">
<path d="M 16300,0 H 0 V 16300 H 16300 V 0" fill="#c36549"/>
</g>
<g transform="scale(1.1963)">
<path d="m16300 13165-1253.8 2194.2-1253.8-2194.2h2507.6" fill="#e96f58"/>
</g>
<g transform="scale(1.3804)">
<path d="m14127 11410l1086.6-1901.7 1086.7 1901.7h-2173.3" fill="#be4947"/>
</g>
<g transform="scale(2.4847)">
<path d="m15093 2112.9 603.7-1056.4 603.7 1056.5h-1207.4v-0.04" fill="#276759"/>
</g>
<g transform="scale(2.4847)">
<path d="m16300 12678-603.7 1056.5-603.7-1056.5h1207.4" fill="#1d2d44"/>
</g>
<g transform="scale(1.7485)">
<path d="m16300 12010-857.9 1501.3-857.8-1501.3h1715.7" fill="#26bea3"/>
</g>
<g transform="scale(1.7485)">
<path d="m14584 9007.9 857.9-1501.3 857.9 1501.3h-1715.8" fill="#476250"/>
</g>
<g transform="scale(2.4847)">
<path d="m15093 6338.9 603.7-1056.5 603.7 1056.5h-1207.4" fill="#23736d"/>
</g>
<g transform="scale(2.1166)">
<path d="m14883 2480.4l708.7-1240.2 708.7 1240.2h-1417.4" fill="#1d5c4c"/>
</g>
<g transform="scale(2.4847)">
<path d="m16300 8451.8-603.7 1056.5-603.7-1056.5h1207.4" fill="#146a80"/>
</g>
<g transform="scale(2.4847)">
<path d="m15093 10565 603.7-1056.5 603.7 1056.5h-1207.4" fill="#145672"/>
</g>
<g transform="scale(1.7485)">
<path d="m14584 15013 857.9-1501.3 857.9 1501.4h-1715.7l-0.1-0.1" fill="#3bb391"/>
</g>
<g transform="scale(2.4847)">
<path d="m16300 4225.9-603.7 1056.5-603.7-1056.5h1207.4" fill="#2d705d"/>
</g>
<g transform="scale(1.6104)">
<path d="m1862.9 14670 931.43 1630h-1862.9l-0.012-0.1 931.45-1629.9" fill="#974c3a"/>
</g>
<g transform="scale(1.9325)">
<path d="m9314.3 14942 776.16 1358.3h-1552.4l-0.05-0.1 776.24-1358.2" fill="#c1b861"/>
</g>
<g transform="scale(1.9325)">
<path d="m14748 5433.3 776.2-1358.3 776.2 1358.3h-1552.4" fill="#166b61"/>
</g>
<g transform="scale(1.5644)">
<path d="m14382 13423 958.8-1677.9 958.9 1678h-1917.7v-0.1" fill="#9dbd6b"/>
</g>
<g transform="scale(2.1166)">
<path d="m16300 4960.9l-708.7 1240.2-708.7-1240.2h1417.4" fill="#30735d"/>
</g>
<g transform="scale(2.0936)">
<path d="m2149.5 15046-716.49 1253.9-716.49-1253.9h1433" fill="#6b3837"/>
</g>
<g transform="scale(1.4494)">
<path d="m14489 16300-1034.9-1811.1h2069.8l-1034.9 1811.1" fill="#bdc85c"/>
</g>
<g transform="scale(1.5644)">
<path d="m14382 6711.7l958.8-1677.9 958.9 1677.9h-1917.7" fill="#76515b"/>
</g>
<g transform="scale(1.4494)">
<path d="m3104.8 14489-1034.9 1811.1-1034.9-1811.1h2069.8" fill="#a95c3d"/>
</g>
<path d="m3000.1 13125 1500 2625h-3e3z" fill="#7c7c5a"/>
<g transform="scale(2.2546)">
<path d="m1330.6 15136 665.3 1164.3h-1330.6l665.32-1164.3" fill="#53323a"/>
</g>
<g transform="scale(2.4156)">
<path d="m13040 15213l-620.9 1086.7-621-1086.7h1241.9" fill="#3b3244"/>
</g>
<g transform="scale(2.4156)">
<path d="m10556 15213l-620.95 1086.7-620.95-1086.7h1241.9" fill="#586566"/>
</g>
<g transform="scale(2.4847)">
<path d="m15093 14791 603.7-1056.4 603.7 1056.4h-1207.4" fill="#17243f"/>
</g>
<g transform="scale(2.4156)">
<path d="m15524 15213l-620.9 1086.7-621-1086.7h1241.9"/>
</g>
<g transform="scale(1.9325)">
<path d="m12419 14942 776.3 1358.3h-1552.4v-0.1l776.1-1358.2" fill="#879570"/>
</g>
<g transform="scale(2.4156)">
<path d="m8072.4 15213l-620.91 1086.7-620.95-1086.7h1241.9" fill="#a2a077"/>
</g>
<g transform="scale(2.4156)">
<path d="m3104.8 15213h0.02l-620.95 1086.7-620.94-1086.7h1241.9" fill="#7e4840"/>
</g>
<g transform="scale(1.6104)">
<path d="m13040 14670 931.4 1630h-1862.8v-0.1l931.4-1629.9" fill="#c2c55c"/>
</g>
<g transform="scale(2.4156)">
<path d="m5588.6 15213h0.04l-620.99 1086.7-620.92-1086.7h1241.9" fill="#c5b14d"/>
</g>
<g transform="scale(1.9325)">
<path d="m15524 9508.3 776.2 1358.4h-1552.4l776.2-1358.4" fill="#09b4aa"/>
</g>
<g transform="scale(1.0123)">
<path d="m14818 12966 1481.8 2593.2h-2963.6l1481.8-2593.2" fill="#e53843"/>
</g>
<path d="m10500 5250h3e3l-1500.1 2625z" fill="#9d8f9c"/>
<path d="m4500.1 10500-1500 2625-1500-2625z" fill="#358a7a"/>
<g transform="scale(1.4494)">
<path d="m11384 14489-1034.9 1811.1-1034.8-1811.1h2069.7" fill="#dfa83f"/>
</g>
<path d="m9e3 13125-1500-2625h2999.9z" fill="#777071"/>
<g transform="scale(1.0123)">
<path d="m14818 12966-1481.7-2593.2h2963.5l-1481.8 2593.2" fill="#e32545"/>
</g>
<g transform="scale(2.1166)">
<path d="m14883 12402 708.7-1240.1 708.7 1240.2h-1417.4v-0.1" fill="#099799"/>
</g>
<g transform="scale(1.6104)">
<path d="m9314.3 14670 931.41 1630h-1862.8l-0.06-0.1 931.43-1629.9" fill="#d9b445"/>
</g>
<g transform="scale(1.1963)">
<path d="m13792 4388.5h2507.6l-1253.8 2194.2-1253.8-2194.2" fill="#d66e7b"/>
</g>
<g transform="scale(1.5644)">
<path d="m14382 3355.9h1917.7l-958.9 1677.9-958.8-1677.9" fill="#466070"/>
</g>
<g transform="scale(1.4494)">
<path d="m6209.6 16300-1034.9-1811.1h2069.8l-1034.9 1811.1" fill="#d97836"/>
</g>
<g transform="scale(2.0936)">
<path d="m10747 15046-716.4 1253.9-716.52-1253.9h1432.9" fill="#c1bc8e"/>
</g>
<path d="m9e3 13125 1500 2625h-3e3z" fill="#af6850"/>
<g transform="scale(1.9325)">
<path d="m16300 8150h0.1l-776.2 1358.3-776.2-1358.3h1552.3" fill="#1c8d7e"/>
</g>
<g transform="scale(2.0936)">
<path d="m13613 15046-716.5 1253.9-716.4-1253.9h1432.9" fill="#525f59"/>
</g>
<g transform="scale(2.0936)">
<path d="m4298.9 16300-716.46-1253.9h1432.9l-716.47 1253.9" fill="#d5a246"/>
</g>
<g transform="scale(2.0936)">
<path d="m7881.3 15046l-716.48 1253.9-716.44-1253.9h1432.9" fill="#d8c571"/>
</g>
<g transform="scale(1.7485)">
<path d="m14584 3002.6-0.1-0.06 857.9-1501.2 857.9 1501.3h-1715.7" fill="#23565e"/>
</g>
<g transform="scale(1.9325)">
<path d="m14748 2716.7h1552.4l-776.2 1358.3-776.2-1358.3" fill="#1a6457"/>
</g>
<g transform="scale(1.3804)">
<path d="m14127 7606.7h2173.3l-1086.7 1901.7-1086.6-1901.7" fill="#c52945"/>
</g>
<g transform="scale(1.6104)">
<path d="m5588.6 14670 931.41 1630h-1862.8l-0.03-0.1 931.43-1629.9" fill="#dc8b3a"/>
</g>
<g transform="scale(1.7485)">
<path d="m14584 6005.3h1715.7l-857.9 1501.3-857.8-1501.3" fill="#356453"/>
</g>
<g transform="scale(2.1166)">
<path d="m16300 14883l-708.7 1240.2-708.7-1240.2h1417.4" fill="#303a51"/>
</g>
<g transform="scale(2.1166)">
<path d="m14883 7441.3 708.7-1240.2 708.7 1240.2h-1417.4" fill="#248472"/>
</g>
<g transform="scale(1.7715)">
<path d="m4233.8 14818-846.76 1481.8-846.74-1481.8h1693.5" fill="#cf7038"/>
</g>
<g transform="scale(1.9325)">
<path d="m16300 13583h0.1l-776.2 1358.4-776.2-1358.4h1552.3" fill="#169b8c"/>
</g>
<g transform="scale(1.7715)">
<path d="m11008 14818l-846.7 1481.8-846.76-1481.8h1693.5" fill="#d0c656"/>
</g>
<g transform="scale(1.7715)">
<path d="m14395 14818h0.1l-846.8 1481.8-846.8-1481.8h1693.5" fill="#99b475"/>
</g>
<g transform="scale(2.3006)">
<path d="m14996 4564 652-1141 652 1141h-1304v-0.04" fill="#2a6f5f"/>
</g>
<g transform="scale(1.0123)">
<path d="m13336 5186.4-0.1-0.1 1481.8-2593.1 1481.8 2593.2h-2963.5" fill="#ce8e90"/>
</g>
<path d="m7500.1 5250-0.04-0.1l1500-2624.9 1500 2625h-2999.9" fill="#3a999f"/>
<path d="m7500.1 5250-1500 2625-1500-2625z" fill="#0fbab7"/>
<g transform="scale(1.3804)">
<path d="m14127 3803.3v-0.07l1086.6-1901.6 1086.7 1901.7h-2173.3" fill="#a67a80"/>
</g>
<g transform="scale(2.3006)">
<path d="m16300 11410l-652 1141-652-1141h1304" fill="#125776"/>
</g>
<g transform="scale(2.3006)">
<path d="m14996 13692 652-1141 652 1141h-1304" fill="#1a3857"/>
</g>
<g transform="scale(2.2546)">
<path d="m14637 15136 665.3 1164.3h-1330.6l665.3-1164.3" fill="#0e1821"/>
</g>
<g transform="scale(2.3006)">
<path d="m14996 9128 652-1141 652 1141h-1304v-0.04" fill="#0a969f"/>
</g>
<g transform="scale(2.3006)">
<path d="m16300 6846l-652 1141-652-1141h1304" fill="#1b887d"/>
</g>
<g transform="scale(2.1166)">
<path d="m16300 9921.7l-708.7 1240.3-708.7-1240.3h1417.4" fill="#02aeb0"/>
</g>
<g transform="scale(2.2546)">
<path d="m11976 15136 665.3 1164.3h-1330.6l665.3-1164.3" fill="#575258"/>
</g>
<g transform="scale(2.2546)">
<path d="m6653.1 15136 665.31 1164.3h-1330.6l665.3-1164.3" fill="#baab60"/>
</g>
<g transform="scale(2.2546)">
<path d="m3991.8 15136 665.29 1164.3h-1330.6l665.3-1164.3" fill="#b47b44"/>
</g>
<g transform="scale(2.2546)">
<path d="m9314.3 15136 665.3 1164.3h-1330.6l665.31-1164.3" fill="#a4a687"/>
</g>
<g transform="scale(1.1273)">
<path d="m6653.1 13971-1330.6 2328.6-1330.6-2328.6h2661.2" fill="#c49154"/>
</g>
<g transform="scale(1.7715)">
<path d="m7620.8 14818-846.81 1481.8-846.7-1481.8h1693.5" fill="#dda446"/>
</g>
<g transform="scale(2.5767)">
<path d="m16300 6112.5v1018.8l-582.1-1018.8h582.1" fill="#28585c"/>
</g>
<g transform="scale(1.7485)">
<path d="m14584 0h1715.7l-857.9 1501.3-857.8-1501.3" fill="#2f374c"/>
</g>
<g transform="scale(1.3804)">
<path d="m14127 0h2173.3l-1086.7 1901.7-1086.6-1901.7" fill="#505f68"/>
</g>
<g transform="scale(2.5767)">
<path d="m4657.1 15281 582.19 1018.8h-1164.3l582.14-1018.8" fill="#616f58"/>
</g>
<path d="m4500.1 10500-0.03-0.1 1500-2624.9 1500 2625h-3e3" fill="#2cb3b7"/>
<g transform="scale(2.5767)">
<path d="m16300 14262v1018.7l-582.1-1018.7h582.1" fill="#14203a"/>
</g>
<g transform="scale(1.9325)">
<path d="m16300 16300h-1552.4l776.2-1358.3 776.2 1358.3" fill="#23515c"/>
</g>
<g transform="scale(2.5767)">
<path d="m15718 8150 582.1-1018.7v1018.8h-582.1v-0.04" fill="#23565e"/>
</g>
<g transform="scale(2.5767)">
<path d="m2328.6 15281 582.14 1018.8h-1164.3l582.15-1018.8" fill="#3e3e40"/>
</g>
<g transform="scale(1.0123)">
<path d="m13336 0h2963.5l-1481.8 2593.2-1481.7-2593.2" fill="#546374"/>
</g>
<g transform="scale(1.1273)">
<path d="m11976 13971-1330.7 2328.6-1330.5-2328.6h2661.2" fill="#d9654b"/>
</g>
<g transform="scale(2.5767)">
<path d="m15718 12225 582.1-1018.7v1018.7h-582.1" fill="#182840"/>
</g>
<path d="m10500 10500-0.1-0.1 1500-2624.9 1500.1 2625h-3e3" fill="#a7506b"/>
<g transform="scale(2.5767)">
<path d="m12225 16300h-1164.3l582.2-1018.8 582.1 1018.8" fill="#264451"/>
</g>
<g transform="scale(1.2883)">
<path d="m8150.1 16300-0.08-0.1 1164.3-2037.4 1164.4 2037.5h-2328.6" fill="#da8139"/>
</g>
<g transform="scale(2.5767)">
<path d="m13971 15281 582.2 1018.8h-1164.3l582.1-1018.8" fill="#1d4452"/>
</g>
<g transform="scale(2.5767)">
<path d="m16300 2037.5v1018.8l-582.1-1018.8h582.1" fill="#20515d"/>
</g>
<g transform="scale(2.1166)">
<path d="m14883 0h1417.4l-708.7 1240.2-708.7-1240.2" fill="#294b43"/>
</g>
<g transform="scale(2.4847)">
<path d="m15093 0h1207.4l-603.7 1056.5-603.7-1056.5" fill="#2c544a"/>
</g>
<g transform="scale(2.5767)">
<path d="m15718 4075 582.1-1018.7v1018.8h-582.1v-0.04" fill="#2d5f55"/>
</g>
<g transform="scale(2.5767)">
<path d="m6985.8 15281 582.11 1018.8h-1164.3l582.18-1018.8" fill="#4d6e67"/>
</g>
<g transform="scale(1.9325)">
<path d="m6209.5 14942 776.25 1358.3h-1552.4l-0.06-0.1 776.19-1358.2" fill="#dfa745"/>
</g>
<g transform="scale(1.1963)">
<path d="m13792 8776.9-0.1-0.08 1253.9-2194.2 1253.8 2194.2h-2507.6" fill="#e62e4f"/>
</g>
<g transform="scale(2.5767)">
<path d="m9314.3 15281 582.18 1018.8h-1164.3l582.15-1018.8" fill="#345053"/>
</g>
<g transform="scale(2.5767)">
<path d="m16300 15281v1018.8h-582.1l582.1-1018.8" fill="#132038"/>
</g>
<g transform="scale(2.3006)">
<path d="m16300 2282l-652 1141-652-1141h1304" fill="#226458"/>
</g>
<g transform="scale(1.2883)">
<path d="m3492.9 16300-0.03-0.1 1164.3-2037.4 1164.3 2037.5h-2328.6" fill="#e47c34"/>
</g>
<path d="m1500 0h3e3l-1500 2625z" fill="#3a737d"/>
<g transform="scale(1.9325)">
<path d="m2328.6 16300-0.02-0.1 776.2-1358.2 776.19 1358.3h-1552.4" fill="#ab563a"/>
</g>
<g transform="scale(1.2883)">
<path d="m12807 16300-0.1-0.1 1164.4-2037.4 1164.2 2037.5h-2328.5" fill="#e2b645"/>
</g>
<g transform="scale(1.5644)">
<path d="m16300 10068h0.1l-958.9 1677.9-958.8-1677.9h1917.6" fill="#946953"/>
</g>
<path d="m3000.1 2625 1500 2625h-3e3z" fill="#0a8790"/>
<g transform="scale(2.5767)">
<path d="m16300 10188v1018.8l-582.1-1018.8h582.1"/>
</g>
<path d="m7500.1 0h2999.9l-1500 2625z" fill="#347983"/>
<g transform="scale(2.5767)">
<path d="m15718 12225 582.1 1018.8h-1164.3l582.2-1018.8" fill="#17192d"/>
</g>
<g>
<path d="m0.0039062 2625v-0.1l0.070313 0.1z" fill="#ff0"/>
<path d="m0.0039062 2625.1v-0.1h0.070313z" fill="#90c"/>
<path d="m1500 5250h-1500v-2624.9l0.070313-0.1 1499.9 2625" fill="#205561"/>
<path d="m1500 5250h-0.04 0.04" fill="#69f"/>
<path d="m3000.1 2625-1500 2625h-0.02l-1499.9-2625h3e3" fill="#196773"/>
<path d="m0.074219 2625 1500-2625 1500 2625z" fill="#377c86"/>
<path d="m3000.1 2625 1500-2625 1500 2625z" fill="#2e8c96"/>
<path d="m4500.1 0h3e3l-1500 2625z" fill="#347983"/>
<path d="m3000.1 2625h3e3l-1500 2625z" fill="#078f97"/>
<path d="m4500.1 5250h-0.03l1500-2625 1500 2625h-2999.9" fill="#059da4"/>
<path d="m7500 5249.9 0.04 0.1h-0.07z" fill="#69f"/>
<path d="m7500 5250-1500-2625h3e3l-1500 2624.9-0.03 0.1" fill="#178a94"/>
<path d="m6e3 2625 1500-2625 1500 2625z" fill="#39808b"/>
<path d="m9e3 2625 1500-2625 1500 2625z" fill="#507e8b"/>
<path d="m10500 0h3000.1l-1500.1 2625z" fill="#4a6876"/>
<path d="m9e3 2625h3e3l-1500 2625z" fill="#5e929a"/>
<path d="m10500 5250h-0.1l1500-2625 1500 2625h-2999.9" fill="#8b9097"/>
<path d="m13500 5249.9 0.1 0.1h-0.1z" fill="#69f"/>
<path d="m13500 5250-1500-2625h3e3l-1500 2624.9v0.1" fill="#b18d94"/>
<path d="M 12000,2625 13500.1,0 15000,2625 Z" fill="#6a7181"/>
</g>
<g transform="scale(1.1043)">
<path d="m13583 2377.1 1358.4-2377.1 1358.3 2377.1h-2716.7" fill="#726f7c"/>
</g>
<g transform="scale(1.1963)">
<path d="m13792 0h2507.7l-1253.8 2194.2-1253.9-2194.2" fill="#545e6b"/>
</g>
<g transform="scale(1.1043)">
<path d="m13583 2377.1h2716.7l-1358.3 2377.1-1358.4-2377.1" fill="#b9898b"/>
</g>
<g transform="scale(1.1963)">
<path d="m13792 4388.5h-0.1l1253.9-2194.2 1253.8 2194.2h-2507.6" fill="#b9908f"/>
</g>
<g transform="scale(1.1963)">
<path d="m16300 4388.4v0.08-0.08" fill="#69f"/>
</g>
<g transform="scale(1.2883)">
<path d="m15136 4075-1164.3-2037.5h2328.6l-1164.3 2037.4v0.08" fill="#9a7d80"/>
</g>
<g transform="scale(1.2883)">
<path d="m13971 2037.5 1164.3-2037.5 1164.3 2037.5h-2328.6" fill="#7f7a80"/>
</g>
<g transform="scale(1.4724)">
<path d="m14262 1782.8 1018.7-1782.8 1018.8 1782.8h-2037.5" fill="#5d6774"/>
</g>
<g transform="scale(1.5644)">
<path d="m14382 0h1917.7l-958.9 1677.9-958.8-1677.9" fill="#303e4c"/>
</g>
<g transform="scale(1.4724)">
<path d="m14262 1782.8h2037.5l-1018.8 1782.8-1018.7-1782.8" fill="#6e6874"/>
</g>
<g transform="scale(1.5644)">
<path d="m16300 3355.8 0.1 0.07h-0.1v-0.07" fill="#69f"/>
</g>
<g transform="scale(1.5644)">
<path d="m14382 3355.9l958.8-1677.9 958.8 1677.9h-1917.6" fill="#5a5e6f"/>
</g>
<g transform="scale(1.6564)">
<path d="m15394 3169.4-905.5-1584.7h1811.1l-905.6 1584.7v0.06" fill="#3a4f62"/>
</g>
<g transform="scale(1.6564)">
<path d="m14489 1584.7 905.6-1584.7 905.5 1584.7h-1811.1" fill="#2a495a"/>
</g>
<g transform="scale(1.8405)">
<path d="m14670 1426.2 815-1426.2l815 1426.2h-1630" fill="#204d4f"/>
</g>
<g transform="scale(1.9325)">
<path d="m14748 0h1552.4l-776.2 1358.3-776.2-1358.3" fill="#274245"/>
</g>
<g transform="scale(1.8405)">
<path d="m14670 1426.2h1630l-815 1426.2-815-1426.2" fill="#1d4e52"/>
</g>
<g transform="scale(1.9325)">
<path d="m16300 2716.7h-0.1 0.1" fill="#69f"/>
</g>
<g transform="scale(1.9325)">
<path d="m14748 2716.7 776.2-1358.3 776.1 1358.3h-1552.3" fill="#1a5a52"/>
</g>
<g transform="scale(2.0245)">
<path d="m15559 2593.2-740.8-1296.6h1481.8l-740.9 1296.6h-0.1" fill="#1c5b4f"/>
</g>
<g transform="scale(2.0245)">
<path d="m14818 1296.6 740.9-1296.6 740.9 1296.6h-1481.8" fill="#21524b"/>
</g>
<g transform="scale(2.2086)">
<path d="m14942 1188.5 679.1-1188.5 679.2 1188.5h-1358.3" fill="#25574a"/>
</g>
<g transform="scale(2.3006)">
<path d="m14996 0h1304l-652 1141-652-1141" fill="#2a5043"/>
</g>
<g transform="scale(2.2086)">
<path d="m14942 1188.5h1358.3l-679.2 1188.5-679.1-1188.5" fill="#20594b"/>
</g>
<g transform="scale(2.3006)">
<path d="m14996 2282 652-1141 652 1141h-1304" fill="#235c51"/>
</g>
<g transform="scale(2.3006)">
<path d="m16300 2282v0.04-0.04" fill="#69f"/>
</g>
<g transform="scale(2.3926)">
<path d="m15673 2194.2-626.9-1097.1h1253.8l-626.9 1097.1v0.04" fill="#275f54"/>
</g>
<g transform="scale(2.3926)">
<path d="m15046 1097.1 626.9-1097.1 626.9 1097.1h-1253.8" fill="#27594c"/>
</g>
<g transform="scale(2.5767)">
<path d="m15718 0 582.1 1018.8h-1164.3l582.2-1018.8" fill="#2d5c52"/>
</g>
<g transform="scale(2.5767)">
<path d="m16300 0v1018.8l-582.1-1018.8h582.1" fill="#245561"/>
</g>
<g transform="scale(2.5767)">
<path d="m15136 1018.8h1164.3l-582.1 1018.8-582.2-1018.8" fill="#2b5f54"/>
</g>
<g transform="scale(2.5767)">
<path d="m15718 2037.5 582.1-1018.8v1018.8h-582.1" fill="#1f4f5b"/>
</g>
<g>
<path d="m3000.1 7875h-3e3l1500-2625z" fill="#0f828c"/>
<path d="m4500.1 5250-1500 2625-1500-2625z" fill="#079ca2"/>
<path d="m1500 10500-1500-2625h3e3z" fill="#1b7679"/>
<path d="m4500.1 10500h-0.07l0.04-0.1z" fill="#69f"/>
<path d="m4500 10500h-3e3l1500-2625z" fill="#07969e"/>
<path d="m4500.1 10500-0.04 0.1-1499.9-2625h3e3l-1500 2624.9" fill="#04a6ad"/>
<path d="m3000.1 7875 1500-2625 1500 2625z" fill="#06a7ac"/>
</g>
<g transform="scale(1.1273)">
<path d="m0.065838 16300 1330.6-2328.6 1330.6 2328.6h-2661.2" fill="#695e4e"/>
</g>
<g transform="scale(1.1273)">
<path d="m3991.9 13971-1330.6 2328.6-1330.6-2328.6h2661.3" fill="#877150"/>
</g>
<g transform="scale(1.2883)">
<path d="m1164.3 16300-1164.3-2037.5h2328.6l-1164.3 2037.5" fill="#635147"/>
</g>
<g transform="scale(1.2883)">
<path d="m3492.9 16300h-0.06l0.03-0.1 0.03 0.1" fill="#69f"/>
</g>
<g transform="scale(1.2883)">
<path d="m3492.9 16300h-2328.6l1164.3-2037.5 1164.2 2037.5" fill="#b7643c"/>
</g>
<g transform="scale(1.2883)">
<path d="m3492.9 16300-0.03 0.1-1164.2-2037.5h2328.6l-1164.3 2037.4" fill="#d07038"/>
</g>
<g transform="scale(1.1273)">
<path d="m2661.3 16300 1330.6-2328.6 1330.6 2328.6h-2661.2" fill="#c78245"/>
</g>
<g transform="scale(1.7715)">
<path d="m0.041897 16300 846.73-1481.8 846.78 1481.8h-1693.5" fill="#432d3a"/>
</g>
<g transform="scale(1.7715)">
<path d="m2540.3 14818-846.75 1481.8-846.78-1481.8h1693.5" fill="#ac5437"/>
</g>
<g transform="scale(1.9325)">
<path d="m776.21 16300-776.17-1358.3h1552.4l-776.22 1358.3" fill="#553037"/>
</g>
<g transform="scale(1.9325)">
<path d="m2328.6 16300h-1552.4l776.22-1358.3 776.15 1358.3" fill="#693736"/>
</g>
<g transform="scale(1.9325)">
<path d="m2328.6 16300h-0.04l0.02-0.1 0.02 0.1" fill="#69f"/>
</g>
<g transform="scale(1.9325)">
<path d="m2328.6 16300-0.02 0.1-776.15-1358.3h1552.4l-776.2 1358.2" fill="#8f4837"/>
</g>
<g transform="scale(1.7715)">
<path d="m1693.6 16300 846.75-1481.8 846.74 1481.8h-1693.5" fill="#bd6037"/>
</g>
<g transform="scale(2.4156)">
<path d="m0.030724 16300 620.94-1086.7 620.97 1086.7h-1241.9" fill="#342537"/>
</g>
<g transform="scale(2.4156)">
<path d="m1862.9 15213-620.96 1086.7-620.97-1086.7h1241.9" fill="#482f3b"/>
</g>
<g transform="scale(2.5767)">
<path d="m1164.3 15281-582.16 1018.8-582.13-1018.8h1164.3" fill="#303e4c"/>
</g>
<g transform="scale(2.5767)">
<path d="m1746.5 16300h-0.02 0.02" fill="#69f"/>
</g>
<g transform="scale(2.5767)">
<path d="m1746.4 16300h-1164.3l582.16-1018.8 582.12 1018.8" fill="#352c3f"/>
</g>
<g transform="scale(2.5767)">
<path d="m2328.6 15281-582.15 1018.8h-0.01l-582.12-1018.8h1164.3" fill="#423140"/>
</g>
<g transform="scale(2.4156)">
<path d="m2483.8 16300h-1241.9l620.96-1086.7 620.94 1086.7" fill="#613a40"/>
</g>
<g>
<path d="m6000.1 7875 1500-2625 1500 2625z" fill="#09adb3"/>
<path d="m7500.1 5250h3e3l-1500.1 2625z" fill="#459ba4"/>
<path d="m7500.1 10500-1500-2625h3e3z" fill="#289a9d"/>
<path d="m10500 10500h-2999.9l1500-2625z" fill="#5c7a83"/>
<path d="m10500 10500h-0.1v-0.1z" fill="#69f"/>
<path d="m10500 10500-1500-2625h3e3l-1500 2624.9v0.1" fill="#826c85"/>
<path d="m9e3 7875 1500.1-2625 1499.9 2625z" fill="#798698"/>
</g>
<g transform="scale(1.1273)">
<path d="m5322.5 16300 1330.6-2328.6 1330.6 2328.6h-2661.2" fill="#ce7c3f"/>
</g>
<g transform="scale(1.1273)">
<path d="m9314.4 13971-1330.7 2328.6-1330.6-2328.6h2661.3" fill="#c06f45"/>
</g>
<g transform="scale(1.2883)">
<path d="m5821.5 16300-1164.3-2037.5h2328.5l-1164.3 2037.5" fill="#db7d3d"/>
</g>
<g transform="scale(1.2883)">
<path d="m8150 16300h-2328.5l1164.3-2037.5 1164.3 2037.5" fill="#d87535"/>
</g>
<g transform="scale(1.2883)">
<path d="m8150.1 16300h-0.08v-0.1l0.08 0.1" fill="#69f"/>
</g>
<g transform="scale(1.2883)">
<path d="m8150 16300v0.1l-1164.3-2037.5h2328.6l-1164.3 2037.4" fill="#d67138"/>
</g>
<g transform="scale(1.1273)">
<path d="m7983.7 16300 1330.7-2328.6 1330.5 2328.6h-2661.2" fill="#d37754"/>
</g>
<g transform="scale(1.7715)">
<path d="m3387 16300 846.76-1481.8 846.73 1481.8h-1693.5" fill="#d6883c"/>
</g>
<g transform="scale(1.7715)">
<path d="m5927.3 14818-846.79 1481.8-846.73-1481.8h1693.5" fill="#dd973f"/>
</g>
<g transform="scale(1.9325)">
<path d="m3881 16300-776.19-1358.3h1552.4l-776.17 1358.3" fill="#c46f3c"/>
</g>
<g transform="scale(1.9325)">
<path d="m5433.4 16300h-0.06v-0.1l0.06 0.1" fill="#69f"/>
</g>
<g transform="scale(1.9325)">
<path d="m5433.3 16300h-1552.3l776.17-1358.3 776.17 1358.3" fill="#d08a42"/>
</g>
<g transform="scale(1.9325)">
<path d="m5433.3 16300v0.1l-776.17-1358.3h1552.4l-776.19 1358.2" fill="#d59944"/>
</g>
<g transform="scale(1.7715)">
<path d="m5080.5 16300 846.79-1481.8 846.7 1481.8h-1693.5" fill="#dfa044"/>
</g>
<g transform="scale(2.4156)">
<path d="m3725.7 16300h-1241.9l620.95-1086.7 620.94 1086.7" fill="#835b42"/>
</g>
<g transform="scale(2.4156)">
<path d="m4346.7 15213h0.04l-620.98 1086.7-620.94-1086.7h1241.9" fill="#ae8a44"/>
</g>
<g transform="scale(2.5767)">
<path d="m3492.9 15281-582.13 1018.8-582.14-1018.8h1164.3" fill="#5a513f"/>
</g>
<g transform="scale(2.5767)">
<path d="m4075 16300h-1164.3l582.13-1018.8 582.13 1018.8" fill="#536053"/>
</g>
<g transform="scale(2.5767)">
<path d="m4075 16300h-0.04 0.04" fill="#77a4ff"/>
</g>
<g transform="scale(2.5767)">
<path d="m4657.1 15281-582.14 1018.8l-582.13-1018.8h1164.3" fill="#747557"/>
</g>
<g transform="scale(2.4156)">
<path d="m4967.6 16300h-1241.9l620.98-1086.7 620.92 1086.7" fill="#ad9646"/>
</g>
<path d="m12000 7875 1500.1-2625 1500 2625z" fill="#d27b8a"/>
<g transform="scale(1.0123)">
<path d="m13336 5186.3h2963.6l-1481.8 2593.2-1481.8-2593.2" fill="#e17c8b"/>
</g>
<path d="m12000 7875h3000.1l-1500 2625z" fill="#ce5772"/>
<g transform="scale(1.0123)">
<path d="m16300 10373v-0.1l0.1 0.1h-0.1" fill="#69f"/>
</g>
<g transform="scale(1.0123)">
<path d="m13336 10373 1481.8-2593.2 1481.7 2593.2h-2963.5" fill="#e23a57"/>
</g>
<g transform="scale(1.1043)">
<path d="m14942 9508.3-1358.3-2377.1h2716.7l-1358.4 2377v0.09" fill="#e7536b"/>
</g>
<g transform="scale(1.1043)">
<path d="m13583 7131.2 1358.4-2377.1 1358.3 2377.1h-2716.7" fill="#e46174"/>
</g>
<g transform="scale(1.1273)">
<path d="m10645 16300 1330.7-2328.6 1330.6 2328.6h-2661.3" fill="#e06e55"/>
</g>
<g transform="scale(1.1273)">
<path d="m14637 13971-1330.6 2328.6-1330.6-2328.6h2661.2" fill="#e65041"/>
</g>
<g transform="scale(1.2883)">
<path d="m10479 16300-1164.4-2037.5h2328.6l-1164.2 2037.5" fill="#df8f3d"/>
</g>
<g transform="scale(1.2883)">
<path d="m12807 16300h-0.1v-0.1l0.1 0.1" fill="#69f"/>
</g>
<g transform="scale(1.2883)">
<path d="m12807 16300h-2328.4l1164.2-2037.5 1164.2 2037.5" fill="#e2a241"/>
</g>
<g transform="scale(1.2883)">
<path d="m12807 16300v0.1l-1164.2-2037.5h2328.6l-1164.4 2037.4" fill="#e6aa42"/>
</g>
<g transform="scale(1.1273)">
<path d="m13306 16300 1330.6-2328.6 1330.6 2328.6h-2661.2" fill="#ea7d57"/>
</g>
<g transform="scale(1.7715)">
<path d="m6774 16300 846.81-1481.8 846.75 1481.8h-1693.6" fill="#d9af48"/>
</g>
<g transform="scale(1.7715)">
<path d="m9314.3 14818-846.75 1481.8-846.75-1481.8h1693.5" fill="#d5b84a"/>
</g>
<g transform="scale(1.9325)">
<path d="m7762 14942-776.19 1358.3-776.25-1358.3h1552.4" fill="#d5b74c"/>
</g>
<g transform="scale(1.9325)">
<path d="m8538.2 16300h-0.05v-0.1l0.05 0.1" fill="#69f"/>
</g>
<g transform="scale(1.9325)">
<path d="m8538.1 16300h-1552.3l776.19-1358.3 776.14 1358.3" fill="#d6bf61"/>
</g>
<g transform="scale(1.9325)">
<path d="m9314.3 14942-776.24 1358.2v0.1l-776.14-1358.3h1552.4" fill="#cfbf56"/>
</g>
<g transform="scale(1.7715)">
<path d="m10161 16300h-1693.5l846.75-1481.8 846.76 1481.8" fill="#ccb64e"/>
</g>
<g transform="scale(2.4156)">
<path d="m6209.6 16300h-1241.9l620.99-1086.7 620.95 1086.7" fill="#a39450"/>
</g>
<g transform="scale(2.4156)">
<path d="m6830.5 15213h0.05l-620.96 1086.7-620.95-1086.7h1241.9" fill="#aba25d"/>
</g>
<g transform="scale(2.5767)">
<path d="m5821.5 15281-582.14 1018.8-582.19-1018.8h1164.3" fill="#7f8562"/>
</g>
<g transform="scale(2.5767)">
<path d="m6403.6 16300h-0.04 0.04" fill="#77a4ff"/>
</g>
<g transform="scale(2.5767)">
<path d="m6403.6 16300h-1164.2l582.14-1018.8 582.1 1018.8" fill="#4e6b61"/>
</g>
<g transform="scale(2.5767)">
<path d="m6985.8 15281-582.18 1018.8l-582.1-1018.8h1164.3" fill="#5f7a6f"/>
</g>
<g transform="scale(2.4156)">
<path d="m7451.5 16300h-1241.9l620.96-1086.7 620.95 1086.7" fill="#828967"/>
</g>
<g transform="scale(1.2884)">
<path d="m13971 6112.5 1164.2-2037.5 1164.4 2037.5h-2328.6" fill="#c26173"/>
</g>
<g transform="scale(1.3804)">
<path d="m14127 3803.3h2173.3l-1086.6 1901.7-1086.7-1901.7" fill="#9b6e7b"/>
</g>
<g transform="scale(1.2884)">
<path d="m13971 6112.5h2328.6l-1164.4 2037.5-1164.2-2037.5" fill="#c74a62"/>
</g>
<g transform="scale(1.3804)">
<path d="m14127 7606.7 1086.7-1901.7 1086.6 1901.7h-2173.3" fill="#c03d59"/>
</g>
<g transform="scale(1.3804)">
<path d="m16300 7606.7" fill="#69f"/>
</g>
<g transform="scale(1.4724)">
<path d="m15281 7131.2-1018.6-1782.8h2037.4l-1018.8 1782.8" fill="#944f64"/>
</g>
<g transform="scale(1.4724)">
<path d="m14263 5348.4 1018.6-1782.8 1018.8 1782.8h-2037.4" fill="#8b5c72"/>
</g>
<g transform="scale(1.2884)">
<path d="m13971 14262 1164.2-2037.5 1164.4 2037.5h-2328.6" fill="#e18159"/>
</g>
<g transform="scale(1.3804)">
<path d="m14127 11410h2173.3l-1086.6 1901.7-1086.7-1901.7" fill="#c36549"/>
</g>
<g transform="scale(1.2884)">
<path d="m15136 16300-1164.2-2037.5h2328.6l-1164.4 2037.5" fill="#e09c46"/>
</g>
<g transform="scale(1.3804)">
<path d="m16300 15213h-2173.3l1086.7-1901.6 1086.6 1901.6" fill="#d6b749"/>
</g>
<g transform="scale(1.3804)">
<path d="m16300 15213" fill="#69f"/>
</g>
<g transform="scale(1.4724)">
<path d="m15281 14262-1018.6-1782.8h2037.4l-1018.8 1782.7v0.1" fill="#b7ac58"/>
</g>
<g transform="scale(1.4724)">
<path d="m15281 10697 1018.8 1782.8h-2037.4l1018.6-1782.8" fill="#b78964"/>
</g>
<g transform="scale(1.7715)">
<path d="m11855 16300h-1693.5l846.7-1481.8 846.8 1481.8" fill="#ccc45b"/>
</g>
<g transform="scale(1.7715)">
<path d="m12701 14818l-846.7 1481.8-846.8-1481.8h1693.5" fill="#bec060"/>
</g>
<g transform="scale(1.9325)">
<path d="m10867 14942-776.2 1358.3-776.16-1358.3h1552.4" fill="#c5bf6a"/>
</g>
<g transform="scale(1.9325)">
<path d="m11643 16300v-0.1 0.1" fill="#69f"/>
</g>
<g transform="scale(1.9325)">
<path d="m11643 16300h-1552.4l776.2-1358.3 776.2 1358.3" fill="#b8b375"/>
</g>
<g transform="scale(1.9325)">
<path d="m12419 14942-776.1 1358.2v0.1l-776.2-1358.3h1552.3" fill="#a4a972"/>
</g>
<g transform="scale(1.7715)">
<path d="m13548 16300h-1693.5l846.7-1481.8 846.8 1481.8" fill="#adb470"/>
</g>
<g transform="scale(2.4156)">
<path d="m8693.4 16300h-1241.9l620.91-1086.7 621 1086.7" fill="#879480"/>
</g>
<g transform="scale(2.4156)">
<path d="m9314.3 15213l-620.91 1086.7-621-1086.7h1241.9" fill="#879582"/>
</g>
<g transform="scale(2.5767)">
<path d="m8150 15281-582.18 1018.8-582.11-1018.8h1164.3" fill="#5b7971"/>
</g>
<g transform="scale(2.5767)">
<path d="m8732.1 16300" fill="#69f"/>
</g>
<g transform="scale(2.5767)">
<path d="m8732.1 16300h-1164.3l582.18-1018.8 582.1 1018.8" fill="#4a7169"/>
</g>
<g transform="scale(2.5767)">
<path d="m9314.3 15281-582.15 1018.8l-582.1-1018.8h1164.2" fill="#597170"/>
</g>
<g transform="scale(2.4156)">
<path d="m9935.2 16300h-1241.9l620.91-1086.7 620.95 1086.7" fill="#5e716e"/>
</g>
<g transform="scale(1.6564)">
<path d="m14489 4754.2 905.6-1584.7 905.5 1584.7h-1811.1" fill="#345f69"/>
</g>
<g transform="scale(1.7485)">
<path d="m14584 3002.6h1715.7l-857.9 1501.3-857.8-1501.3" fill="#20615d"/>
</g>
<g transform="scale(1.6564)">
<path d="m14489 4754.2h1811.1l-905.5 1584.7-905.6-1584.7" fill="#545a60"/>
</g>
<g transform="scale(1.7485)">
<path d="m14584 6005.3 857.8-1501.3 857.9 1501.3h-1715.7" fill="#2a6456"/>
</g>
<g transform="scale(1.8405)">
<path d="m14670 4278.8h1630l-815 1426.2-815-1426.2" fill="#226856"/>
</g>
<g transform="scale(1.8405)">
<path d="m14670 4278.8 815-1426.2 815 1426.2h-1630" fill="#1b6459"/>
</g>
<g transform="scale(1.6564)">
<path d="m15394 9508.3 905.5 1584.8h-1811.1l905.6-1584.8" fill="#568261"/>
</g>
<g transform="scale(1.7485)">
<path d="m16300 9007.9-857.9 1501.3-857.8-1501.3h1715.7" fill="#2d8d71"/>
</g>
<g transform="scale(1.6564)">
<path d="m14489 11093h1811.1l-905.5 1584.7-905.6-1584.7" fill="#7da56d"/>
</g>
<g transform="scale(1.7485)">
<path d="m15442 10509 857.9 1501.3h-1715.7l857.8-1501.3" fill="#50bb8c"/>
</g>
<g transform="scale(1.8405)">
<path d="m14670 9983.8h1630l-815 1426.2-815-1426.2" fill="#1faa93"/>
</g>
<g transform="scale(1.8405)">
<path d="m15485 8557.5 815 1426.2h-1630l815-1426.2" fill="#199988"/>
</g>
<g transform="scale(1.7715)">
<path d="m15242 16300h-1693.5l846.8-1481.8 846.7 1481.8" fill="#92aa76"/>
</g>
<g transform="scale(1.7715)">
<path d="m16088 14818-846.7 1481.8-846.7-1481.8h1693.4" fill="#68a77e"/>
</g>
<g transform="scale(1.9325)">
<path d="m13971 14942-776.1 1358.3-776.3-1358.3h1552.4" fill="#6b9272"/>
</g>
<g transform="scale(1.9325)">
<path d="m14748 16300h-1552.3l776.1-1358.3 776.2 1358.3" fill="#5c8c6f"/>
</g>
<g transform="scale(1.9325)">
<path d="m15524 14942-776.2 1358.3-776.2-1358.3h1552.4" fill="#2e7368"/>
</g>
<g transform="scale(1.8405)">
<path d="m15485 14262 815 1426.2h-1630l815-1426.2" fill="#318c77"/>
</g>
<g transform="scale(2.4156)">
<path d="m11177 16300h-1242l620.95-1086.7 621 1086.7" fill="#3a4851"/>
</g>
<g transform="scale(2.4156)">
<path d="m11798 15213-620.9 1086.7-621-1086.7h1241.9" fill="#39374a"/>
</g>
<g transform="scale(2.5767)">
<path d="m10479 15281-582.13 1018.8-582.18-1018.8h1164.3" fill="#31454f"/>
</g>
<g transform="scale(2.5767)">
<path d="m11061 16300h-1164.2l582.13-1018.8 582.1 1018.8" fill="#2b4a53"/>
</g>
<g transform="scale(2.5767)">
<path d="m11643 15281-582.2 1018.8-582.1-1018.8h1164.3" fill="#29444f"/>
</g>
<g transform="scale(2.4156)">
<path d="m12419 16300h-1241.9l620.9-1086.7 621 1086.7" fill="#443b4e"/>
</g>
<g transform="scale(2.0245)">
<path d="m14818 3889.8 740.9-1296.6 740.9 1296.6h-1481.8" fill="#1e6e5b"/>
</g>
<g transform="scale(2.1166)">
<path d="m14883 2480.4h1417.4l-708.7 1240.2-708.7-1240.2" fill="#1c6452"/>
</g>
<g transform="scale(2.0245)">
<path d="m14818 3889.8h1481.8l-740.9 1296.6-740.9-1296.6" fill="#226e57"/>
</g>
<g transform="scale(2.1166)">
<path d="m16300 4960.8v0.05-0.05" fill="#69f"/>
</g>
<g transform="scale(2.1166)">
<path d="m15591 3720.7 708.6 1240.2h-1417.3l708.7-1240.2" fill="#236b58"/>
</g>
<g transform="scale(2.2086)">
<path d="m15621 4754.2-679.1-1188.5h1358.3l-679.2 1188.5v0.05" fill="#276d5c"/>
</g>
<g transform="scale(2.2086)">
<path d="m15621 2377.1 679.2 1188.6h-1358.3l679.1-1188.6" fill="#206858"/>
</g>
<g transform="scale(2.0245)">
<path d="m15559 7779.6 740.9 1296.6h-1481.8l740.9-1296.6" fill="#119a91"/>
</g>
<g transform="scale(2.1166)">
<path d="m16300 7441.3-708.7 1240.2-708.7-1240.2h1417.4" fill="#179187"/>
</g>
<g transform="scale(2.0245)">
<path d="m14818 9076.1h1481.8l-740.9 1296.6-740.9-1296.6" fill="#09a5a1"/>
</g>
<g transform="scale(2.1166)">
<path d="m15591 8681.6 708.6 1240.2h-1417.3l708.7-1240.2" fill="#05a9a9"/>
</g>
<g transform="scale(2.1166)">
<path d="m16300 9921.7v0.05-0.05" fill="#69f"/>
</g>
<g transform="scale(2.2086)">
<path d="m15621 9508.3-679.1-1188.5h1358.3l-679.2 1188.5v0.04" fill="#08a4a5"/>
</g>
<g transform="scale(2.2086)">
<path d="m15621 7131.2 679.2 1188.5h-1358.3l679.1-1188.5" fill="#109892"/>
</g>
<g transform="scale(2.0245)">
<path d="m15559 12966 740.9 1296.6h-1481.8l740.9-1296.6" fill="#128c83"/>
</g>
<g transform="scale(2.1166)">
<path d="m16300 12402-708.7 1240.2-708.7-1240.2h1417.4" fill="#0d8088"/>
</g>
<g transform="scale(2.0245)">
<path d="m14818 14262h1481.8l-740.9 1296.6-740.9-1296.6" fill="#16616d"/>
</g>
<g transform="scale(2.1166)">
<path d="m15591 13642 708.6 1240.3h-1417.3l708.7-1240.3" fill="#194d64"/>
</g>
<g transform="scale(2.1166)">
<path d="m16300 14883" fill="#69f"/>
</g>
<g transform="scale(2.2086)">
<path d="m15621 14262-679.1-1188.5h1358.3l-679.2 1188.5" fill="#174f6a"/>
</g>
<g transform="scale(2.2086)">
<path d="m15621 11885 679.2 1188.6h-1358.3l679.1-1188.6" fill="#12617a"/>
</g>
<g transform="scale(2.4156)">
<path d="m13661 16300h-1241.9l620.9-1086.7 621 1086.7" fill="#232e44"/>
</g>
<g transform="scale(2.4156)">
<path d="m14282 15213-620.9 1086.7-621-1086.7h1241.9" fill="#22263f"/>
</g>
<g transform="scale(2.5767)">
<path d="m12807 15281-582.1 1018.8-582.1-1018.8h1164.2" fill="#223d4c"/>
</g>
<g transform="scale(2.5767)">
<path d="m13389 16300h-1164.2l582.1-1018.8 582.1 1018.8" fill="#1d4653"/>
</g>
<g transform="scale(2.5767)">
<path d="m13389 16300h-0.1 0.1" fill="#69f"/>
</g>
<g transform="scale(2.5767)">
<path d="m13971 15281-582.1 1018.8h-0.1l-582.1-1018.8h1164.3" fill="#1d4150"/>
</g>
<g transform="scale(2.4156)">
<path d="m14903 16300h-1241.9l620.9-1086.7 621 1086.7" fill="#142230"/>
</g>
<g transform="scale(2.3926)">
<path d="m15673 2194.2 626.9 1097.1h-1253.8l626.9-1097.1" fill="#27675a"/>
</g>
<g transform="scale(2.4847)">
<path d="m16300 2113l-603.7 1056.5-603.7-1056.5h1207.4" fill="#2d6e5f"/>
</g>
<g transform="scale(2.3926)">
<path d="m15046 3291.4h1253.8l-626.9 1097.1-626.9-1097.1" fill="#2a6a5a"/>
</g>
<g transform="scale(2.4847)">
<path d="m16300 4225.9v-0.04 0.04" fill="#69f"/>
</g>
<g transform="scale(2.4847)">
<path d="m15696 3169.4 603.7 1056.5h-1207.4l603.7-1056.5" fill="#2e6a58"/>
</g>
<g transform="scale(2.5767)">
<path d="m15718 4075-582.2-1018.8h1164.3l-582.1 1018.7v0.04" fill="#2e6556"/>
</g>
<g transform="scale(2.5767)">
<path d="m15718 2037.5 582.1 1018.8h-1164.3l582.2-1018.8" fill="#2b6557"/>
</g>
<g transform="scale(2.3926)">
<path d="m15673 6582.7 626.9 1097.1h-1253.8l626.9-1097.1" fill="#167d84"/>
</g>
<g transform="scale(2.4847)">
<path d="m16300 6338.9l-603.7 1056.5-603.7-1056.5h1207.4" fill="#1d7273"/>
</g>
<g transform="scale(2.3926)">
<path d="m15046 7679.8h1253.8l-626.9 1097.1-626.9-1097.1" fill="#0d8b96"/>
</g>
<g transform="scale(2.4847)">
<path d="m15696 7395.4 603.7 1056.5h-1207.4l603.7-1056.5" fill="#107a8e"/>
</g>
<g transform="scale(2.4847)">
<path d="m16300 8451.8v-0.04 0.04" fill="#69f"/>
</g>
<g transform="scale(2.5767)">
<path d="m15718 8150-582.2-1018.8h1164.3l-582.1 1018.7v0.04" fill="#156e81"/>
</g>
<g transform="scale(2.5767)">
<path d="m15718 6112.5 582.1 1018.8h-1164.3l582.2-1018.8" fill="#22616a"/>
</g>
<g transform="scale(2.3926)">
<path d="m15673 10971 626.9 1097.1h-1253.8l626.9-1097.1" fill="#174663"/>
</g>
<g transform="scale(2.4847)">
<path d="m16300 10565l-603.7 1056.5-603.7-1056.5h1207.4" fill="#17405b"/>
</g>
<g transform="scale(2.3926)">
<path d="m15046 12068h1253.8l-626.9 1097.1-626.9-1097.1" fill="#193754"/>
</g>
<g transform="scale(2.4847)">
<path d="m15696 11621 603.7 1056.5h-1207.4l603.7-1056.5" fill="#1a2a44"/>
</g>
<g transform="scale(2.4847)">
<path d="m16300 12678v-0.1 0.1" fill="#69f"/>
</g>
<g transform="scale(2.5767)">
<path d="m15718 12225-582.2-1018.7h1164.3l-582.1 1018.7" fill="#193551"/>
</g>
<g transform="scale(2.5767)">
<path d="m15718 10188 582.1 1018.8h-1164.3l582.2-1018.8" fill="#19364b"/>
</g>
<g transform="scale(2.4156)">
<path d="m16145 16300h-1241.9l620.9-1086.7 621 1086.7" fill="#1e213c"/>
</g>
<g transform="scale(2.4847)">
<path d="m16300 14791l-603.7 1056.5-603.7-1056.5h1207.4" fill="#142230"/>
</g>
<g transform="scale(2.5767)">
<path d="m15136 15281-582.1 1018.8-582.2-1018.8h1164.3" fill="#16334b"/>
</g>
<g transform="scale(2.5767)">
<path d="m15718 16300h-1164.3l582.1-1018.8 582.2 1018.8" fill="#152f45"/>
</g>
<g transform="scale(2.5767)">
<path d="m15718 16300" fill="#69f"/>
</g>
<g transform="scale(2.5767)">
<path d="m16300 15281-582.1 1018.8l-582.2-1018.8h1164.3" fill="#14273f"/>
</g>
<g transform="scale(2.5767)">
<path d="m15718 14262 582.1 1018.7h-1164.3l582.2-1018.7" fill="#203749"/>
</g>
<g>
<path d="m0.0039062 13125v-0.1l0.070313 0.1z" fill="#ff0"/>
<path d="m0.0039062 13125v-2624.9h1500l-1500 2625-0.070313-0.1" fill="#2d5b57"/>
<path d="m0.0039062 13125v-0.1h0.070313z" fill="#90c"/>
<path d="m1500 15750h-1500v-2624.9l0.070313-0.1 1499.9 2625" fill="#2e4951"/>
<path d="m1500 15750h-0.04 0.04" fill="#69f"/>
<path d="m3000.1 13125-1500 2625h-0.02l-1499.9-2625h3e3" fill="#456860"/>
<path d="m0.074219 13125 1500-2625 1500 2625z" fill="#2f6f6b"/>
</g>
<g transform="scale(1.4494)">
<path d="m0.0026951 16300v-0.1l0.048512 0.1h-0.048512" fill="#ff0"/>
</g>
<g transform="scale(1.4494)">
<path d="m0.0026951 16300v-1811h1034.9l-1034.9 1811.1-0.048512-0.1" fill="#20525a"/>
</g>
<g transform="scale(1.4494)">
<path d="m0.0026951 16300v-0.1h0.048512l-0.048512 0.1" fill="#90c"/>
</g>
<g transform="scale(1.6104)">
<path d="m931.45 16300h-0.024l0.012-0.1 0.012 0.1" fill="#69f"/>
</g>
<g transform="scale(1.6104)">
<path d="m931.43 16300h-931.43v-1629.9l0.043661-0.1 931.38 1630" fill="#1c4151"/>
</g>
<g transform="scale(1.6104)">
<path d="m1862.9 14670-931.45 1629.9-0.012 0.1l-931.38-1630h1862.8" fill="#603b3a"/>
</g>
<g transform="scale(1.4494)">
<path d="m0.051207 16300 1034.9-1811.1 1034.9 1811.1h-2069.8" fill="#554344"/>
</g>
<g transform="scale(2.0936)">
<path d="m0.0018658 16300h0.033585-0.033585" fill="#ff0"/>
</g>
<g transform="scale(2.0936)">
<path d="m0.0018658 16300v-1253.9h716.5l-716.47 1253.9h-0.033585" fill="#17243e"/>
</g>
<g transform="scale(2.2546)">
<path d="m665.31 16300h-665.3v-1164.3h0.031186l665.27 1164.3" fill="#2f1f33"/>
</g>
<g transform="scale(2.2546)">
<path d="m665.32 16300h-0.018 0.018" fill="#69f"/>
</g>
<g transform="scale(2.2546)">
<path d="m1330.6 15136-665.32 1164.3h-9e-3l-665.27-1164.3h1330.6" fill="#332133"/>
</g>
<g transform="scale(2.0936)">
<path d="m0.035451 16300 716.47-1253.9 716.49 1253.9h-1433" fill="#4d2d36"/>
</g>
<g>
<path d="m3000.1 13125 1500-2625 1500 2625z" fill="#589073"/>
<path d="m7500.1 10500-1500 2625-1500-2625z" fill="#429d86"/>
<path d="m4500.1 15750-1500-2625h3e3z" fill="#7c9065"/>
<path d="m7500.1 15750h-0.07 0.07" fill="#69f"/>
<path d="m7500 15750h-2999.9l1500-2625z" fill="#a08b5a"/>
<path d="m7500 15750h-0.03l-1500-2625h3e3l-1500 2625" fill="#947d5f"/>
<path d="m6e3 13125 1500-2625 1500 2625z" fill="#748d70"/>
</g>
<g transform="scale(1.4494)">
<path d="m2069.9 16300 1034.9-1811.1 1034.9 1811.1h-2069.8" fill="#d36a36"/>
</g>
<g transform="scale(1.4494)">
<path d="m5174.6 14489-1035 1811.1-1034.9-1811.1h2069.8" fill="#e5894e"/>
</g>
<g transform="scale(1.6104)">
<path d="m2794.3 16300-931.43-1630h1862.8l-931.41 1630" fill="#b35738"/>
</g>
<g transform="scale(1.6104)">
<path d="m4657.2 16300h-0.05l0.02-0.1 0.03 0.1" fill="#69f"/>
</g>
<g transform="scale(1.6104)">
<path d="m4657.1 16300h-1862.8l931.41-1630 931.41 1630" fill="#cf6636"/>
</g>
<g transform="scale(1.6104)">
<path d="m4657.2 16300-0.02 0.1-931.41-1630h1862.9l-931.43 1629.9" fill="#da7535"/>
</g>
<g transform="scale(1.4494)">
<path d="m4139.7 16300 1035-1811.1 1034.9 1811.1h-2069.8" fill="#de7f35"/>
</g>
<g transform="scale(2.0936)">
<path d="m1433 16300 716.49-1253.9 716.46 1253.9h-1433" fill="#824239"/>
</g>
<g transform="scale(2.0936)">
<path d="m3582.4 15046-716.51 1253.9-716.46-1253.9h1433" fill="#b86740"/>
</g>
<g transform="scale(2.2546)">
<path d="m1995.9 16300-665.3-1164.3h1330.6l-665.29 1164.3" fill="#743e3b"/>
</g>
<g transform="scale(2.2546)">
<path d="m3326.6 16300h-0.03 0.03" fill="#69f"/>
</g>
<g transform="scale(2.2546)">
<path d="m3326.5 16300h-1330.6l665.29-1164.3 665.3 1164.3" fill="#874840"/>
</g>
<g transform="scale(2.2546)">
<path d="m3991.8 15136-665.3 1164.3h-0.02l-665.3-1164.3h1330.6" fill="#b36844"/>
</g>
<g transform="scale(2.0936)">
<path d="m2865.9 16300 716.51-1253.9 716.46 1253.9h-1433" fill="#ba7242"/>
</g>
<g>
<path d="m9e3 13125 1500-2625 1500 2625z" fill="#ab525c"/>
<path d="m13500 10500-1500.1 2625-1500-2625z" fill="#b8415b"/>
<path d="m10500 15750-1500-2625h3e3z" fill="#b55651"/>
<path d="m13500 15750h-3e3l1500-2625z" fill="#c95349"/>
<path d="m13500 15750h-0.1z" fill="#69f"/>
<path d="m13500 15750l-1500-2625h3e3l-1500 2625" fill="#db3846"/>
<path d="m12000 13125 1500.1-2625 1499.9 2625z" fill="#d1354f"/>
</g>
<g transform="scale(1.4494)">
<path d="m6209.6 16300 1034.9-1811.1 1034.9 1811.1h-2069.8" fill="#db833a"/>
</g>
<g transform="scale(1.4494)">
<path d="m9314.4 14489-1035 1811.1-1034.9-1811.1h2069.9" fill="#e5894e"/>
</g>
<g transform="scale(1.6104)">
<path d="m6520 16300-931.41-1630h1862.8l-931.43 1630" fill="#dd8d3d"/>
</g>
<g transform="scale(1.6104)">
<path d="m8382.9 16300h-0.06v-0.1l0.06 0.1" fill="#69f"/>
</g>
<g transform="scale(1.6104)">
<path d="m8382.9 16300h-1862.9l931.43-1630 931.43 1630" fill="#dd9442"/>
</g>
<g transform="scale(1.6104)">
<path d="m8382.9 16300v0.1l-931.43-1630h1862.9l-931.43 1629.9" fill="#dca442"/>
</g>
<g transform="scale(1.4494)">
<path d="m8279.4 16300 1035-1811.1 1034.8 1811.1h-2069.8" fill="#dd9a40"/>
</g>
<g transform="scale(2.0936)">
<path d="m5731.9 16300h-1433l716.47-1253.9 716.48 1253.9" fill="#ddbb49"/>
</g>
<g transform="scale(2.0936)">
<path d="m5015.4 15046h1433l-716.53 1253.9-716.48-1253.9h0.05" fill="#ddc55e"/>
</g>
<g transform="scale(2.2546)">
<path d="m5322.4 15136-665.31 1164.3-665.29-1164.3h1330.6" fill="#ddc357"/>
</g>
<g transform="scale(2.2546)">
<path d="m5987.8 16300h-1330.6l665.31-1164.3 665.31 1164.3" fill="#d6bf5b"/>
</g>
<g transform="scale(2.2546)">
<path d="m5987.8 16300h-0.04 0.04" fill="#69f"/>
</g>
<g transform="scale(2.2546)">
<path d="m6653.1 15136-665.3 1164.3l-665.31-1164.3h1330.6" fill="#c6b560"/>
</g>
<g transform="scale(2.0936)">
<path d="m7164.8 16300h-1433l716.53-1253.9 716.44 1253.9" fill="#d1bd56"/>
</g>
<g transform="scale(1.1043)">
<path d="m14942 9508.3 1358.3 2377.1h-2716.7l1358.4-2377.1" fill="#d80b2c"/>
</g>
<g transform="scale(1.1963)">
<path d="m13792 8776.9h2507.7l-1253.8 2194.3-1253.9-2194.3" fill="#da2451"/>
</g>
<g transform="scale(1.1043)">
<path d="m13583 11885h2716.7l-1358.3 2377.1-1358.4-2377.1" fill="#e92d41"/>
</g>
<g transform="scale(1.1963)">
<path d="m13792 13165h-0.1l1253.9-2194.2 1253.8 2194.2h-2507.6" fill="#e7535d"/>
</g>
<g transform="scale(1.1963)">
<path d="m16300 13165" fill="#69f"/>
</g>
<g transform="scale(1.2883)">
<path d="m15136 12225-1164.3-2037.5h2328.6l-1164.3 2037.5" fill="#dc4655"/>
</g>
<g transform="scale(1.2883)">
<path d="m13971 10188 1164.3-2037.5 1164.3 2037.5h-2328.6" fill="#d72143"/>
</g>
<g transform="scale(1.4494)">
<path d="m10349 16300 1034.9-1811.1 1034.9 1811.1h-2069.8" fill="#dec845"/>
</g>
<g transform="scale(1.4494)">
<path d="m13454 14489-1035 1811.1-1034.9-1811.1h2069.9" fill="#d6c44f"/>
</g>
<g transform="scale(1.6104)">
<path d="m10246 16300-931.41-1630h1862.8l-931.4 1630" fill="#e0cb51"/>
</g>
<g transform="scale(1.6104)">
<path d="m12109 16300h-1862.9l931.4-1630 931.5 1630" fill="#d5ca4e"/>
</g>
<g transform="scale(1.6104)">
<path d="m12109 16300v-0.1 0.1" fill="#69f"/>
</g>
<g transform="scale(1.6104)">
<path d="m13040 14670-931.4 1629.9v0.1l-931.5-1630h1862.9" fill="#d9d16a"/>
</g>
<g transform="scale(1.4494)">
<path d="m12419 16300 1035-1811.1 1034.9 1811.1h-2069.9" fill="#d0cb53"/>
</g>
<g transform="scale(2.0936)">
<path d="m8597.8 16300h-1433l716.48-1253.9 716.48 1253.9" fill="#c7bb63"/>
</g>
<g transform="scale(2.0936)">
<path d="m7881.4 15046h1432.9l-716.49 1253.9-716.48-1253.9h0.05" fill="#bfb664"/>
</g>
<g transform="scale(2.2546)">
<path d="m7983.7 15136-665.31 1164.3-665.31-1164.3h1330.6" fill="#bfb66d"/>
</g>
<g transform="scale(2.2546)">
<path d="m8649 16300h-1330.6l665.31-1164.3 665.3 1164.3" fill="#b2af78"/>
</g>
<g transform="scale(2.2546)">
<path d="m8649 16300" fill="#69f"/>
</g>
<g transform="scale(2.2546)">
<path d="m9314.3 15136-665.31 1164.3l-665.3-1164.3h1330.6" fill="#adaa7f"/>
</g>
<g transform="scale(2.0936)">
<path d="m10031 16300h-1433l716.49-1253.9 716.52 1253.9" fill="#bab67b"/>
</g>
<g transform="scale(1.4724)">
<path d="m14262 8914.1 1018.7-1782.8 1018.8 1782.8h-2037.5" fill="#a93749"/>
</g>
<g transform="scale(1.5644)">
<path d="m14382 6711.7h1917.7l-958.9 1677.9-958.8-1677.9" fill="#734d4d"/>
</g>
<g transform="scale(1.4724)">
<path d="m14262 8914.1h2037.5l-1018.8 1782.8-1018.7-1782.8" fill="#9f4247"/>
</g>
<g transform="scale(1.5644)">
<path d="m16300 10068h0.1-0.1" fill="#69f"/>
</g>
<g transform="scale(1.5644)">
<path d="m14382 10068l958.8-1677.9 958.8 1677.9h-1917.6" fill="#94524b"/>
</g>
<g transform="scale(1.6564)">
<path d="m15394 9508.3-905.5-1584.7h1811.1l-905.6 1584.7" fill="#6b514a"/>
</g>
<g transform="scale(1.6564)">
<path d="m14489 7923.6 905.6-1584.7 905.5 1584.7h-1811.1" fill="#52584f"/>
</g>
<g transform="scale(1.4724)">
<path d="m15281 14262 1018.8 1782.8h-2037.5l1018.7-1782.8" fill="#a2c66d"/>
</g>
<g transform="scale(1.5644)">
<path d="m14382 13424h1917.7l-958.9 1677.9-958.8-1677.9" fill="#87c47b"/>
</g>
<g transform="scale(1.6104)">
<path d="m14903 14670-931.5 1630-931.4-1630h1862.9" fill="#a0bd66"/>
</g>
<g transform="scale(1.6104)">
<path d="m15834 16300h-1862.9l931.5-1630 931.4 1630" fill="#88ba7e"/>
</g>
<g transform="scale(1.6104)">
<path d="m15834 16300v-0.1 0.1" fill="#69f"/>
</g>
<g transform="scale(1.6564)">
<path d="m15394 15847-905.5-1584.7h1811.1l-905.6 1584.7" fill="#5cb78b"/>
</g>
<g transform="scale(1.6564)">
<path d="m15394 12678 905.5 1584.7h-1811.1l905.6-1584.7" fill="#54c091"/>
</g>
<g transform="scale(2.0936)">
<path d="m11464 16300h-1432.9l716.4-1253.9 716.5 1253.9" fill="#a6a37f"/>
</g>
<g transform="scale(2.0936)">
<path d="m10747 15046h1433.1l-716.6 1253.9-716.5-1253.9" fill="#8b8f6e"/>
</g>
<g transform="scale(2.2546)">
<path d="m10645 15136-665.31 1164.3-665.3-1164.3h1330.6" fill="#94977e"/>
</g>
<g transform="scale(2.2546)">
<path d="m11310 16300h-0.1 0.1" fill="#69f"/>
</g>
<g transform="scale(2.2546)">
<path d="m11310 16300h-1330.6l665.31-1164.3 665.3 1164.3" fill="#717870"/>
</g>
<g transform="scale(2.2546)">
<path d="m11976 15136-665.3 1164.3l-665.3-1164.3h1330.6" fill="#6c6d67"/>
</g>
<g transform="scale(2.0936)">
<path d="m12897 16300h-1433l716.6-1253.9 716.4 1253.9" fill="#707364"/>
</g>
<g transform="scale(1.8405)">
<path d="m15485 5705 815 1426.2h-1630l815-1426.2" fill="#306e53"/>
</g>
<g transform="scale(1.9325)">
<path d="m16300 5433.3-776.2 1358.3-776.2-1358.3h1552.4" fill="#2b6c54"/>
</g>
<g transform="scale(1.8405)">
<path d="m14670 7131.2h1630l-815 1426.2-815-1426.2" fill="#376b51"/>
</g>
<g transform="scale(1.9325)">
<path d="m15524 6791.7 776.1 1358.3h-1552.3l776.2-1358.3" fill="#2a7b63"/>
</g>
<g transform="scale(1.9325)">
<path d="m16300 8150h-0.1 0.1" fill="#69f"/>
</g>
<g transform="scale(2.0245)">
<path d="m15559 7779.6-740.8-1296.6h1481.8l-740.9 1296.6h-0.1" fill="#30826b"/>
</g>
<g transform="scale(2.0245)">
<path d="m15559 5186.4 740.9 1296.6h-1481.8l740.9-1296.6" fill="#2f7259"/>
</g>
<g transform="scale(1.8405)">
<path d="m15485 11410 815 1426.2h-1630l815-1426.2" fill="#0eb5a5"/>
</g>
<g transform="scale(1.9325)">
<path d="m16300 10867-776.2 1358.3-776.2-1358.3h1552.4" fill="#04ada8"/>
</g>
<g transform="scale(1.8405)">
<path d="m14670 12836h1630l-815 1426.3-815-1426.3" fill="#15b0a3"/>
</g>
<g transform="scale(1.9325)">
<path d="m16300 13583h-0.1 0.1" fill="#69f"/>
</g>
<g transform="scale(1.9325)">
<path d="m15524 12225 776.1 1358.4h-1552.3l776.2-1358.4" fill="#0ba399"/>
</g>
<g transform="scale(2.0245)">
<path d="m15559 12966-740.8-1296.6h1481.8l-740.9 1296.6h-0.1" fill="#04aaa8"/>
</g>
<g transform="scale(2.0245)">
<path d="m15559 10373 740.9 1296.6h-1481.8l740.9-1296.6" fill="#03b8b7"/>
</g>
<g transform="scale(2.0936)">
<path d="m14330 16300h-1433l716.5-1253.9 716.5 1253.9" fill="#445154"/>
</g>
<g transform="scale(2.0936)">
<path d="m15046 15046-716.4 1253.9-716.5-1253.9h1432.9" fill="#3b4d52"/>
</g>
<g transform="scale(2.2546)">
<path d="m13306 15136-665.3 1164.3-665.3-1164.3h1330.6" fill="#443b4e"/>
</g>
<g transform="scale(2.2546)">
<path d="m13971 16300" fill="#69f"/>
</g>
<g transform="scale(2.2546)">
<path d="m13971 16300h-1330.6l665.3-1164.3 665.3 1164.3" fill="#34273e"/>
</g>
<g transform="scale(2.2546)">
<path d="m14637 15136-665.3 1164.3l-665.3-1164.3h1330.6" fill="#323249"/>
</g>
<g transform="scale(2.0936)">
<path d="m15763 16300h-1432.9l716.4-1253.9 716.5 1253.9" fill="#282641"/>
</g>
<g transform="scale(2.2086)">
<path d="m15621 4754.2 679.2 1188.5h-1358.3l679.1-1188.5" fill="#307660"/>
</g>
<g transform="scale(2.3006)">
<path d="m16300 4564-652 1141-652-1141h1304" fill="#2f7560"/>
</g>
<g transform="scale(2.2086)">
<path d="m14942 5942.7h1358.3l-679.2 1188.5-679.1-1188.5" fill="#2d8c77"/>
</g>
<g transform="scale(2.3006)">
<path d="m16300 6846" fill="#69f"/>
</g>
<g transform="scale(2.3006)">
<path d="m15648 5705 652 1141h-1304l652-1141" fill="#228273"/>
</g>
<g transform="scale(2.3926)">
<path d="m15673 6582.7-626.9-1097.1h1253.8l-626.9 1097.1" fill="#278777"/>
</g>
<g transform="scale(2.3926)">
<path d="m15673 4388.5 626.9 1097.1h-1253.8l626.9-1097.1" fill="#2d7460"/>
</g>
<g transform="scale(2.2086)">
<path d="m15621 9508.3 679.2 1188.6h-1358.3l679.1-1188.6" fill="#03a4ae"/>
</g>
<g transform="scale(2.3006)">
<path d="m16300 9128-652 1141-652-1141h1304" fill="#0890a1"/>
</g>
<g transform="scale(2.2086)">
<path d="m14942 10697h1358.3l-679.2 1188.5-679.1-1188.5" fill="#04a1a9"/>
</g>
<g transform="scale(2.3006)">
<path d="m16300 11410" fill="#69f"/>
</g>
<g transform="scale(2.3006)">
<path d="m15648 10269 652 1141h-1304l652-1141" fill="#09889a"/>
</g>
<g transform="scale(2.3926)">
<path d="m15673 10971-626.9-1097.2h1253.8l-626.9 1097.1v0.1" fill="#0f6f89"/>
</g>
<g transform="scale(2.3926)">
<path d="m15673 8776.9 626.9 1097.1h-1253.8l626.9-1097.1" fill="#0c7b93"/>
</g>
<g transform="scale(2.2086)">
<path d="m15621 14262 679.2 1188.6h-1358.3l679.1-1188.6" fill="#22233f"/>
</g>
<g transform="scale(2.3006)">
<path d="m16300 13692-652 1141-652-1141h1304" fill="#24415b"/>
</g>
<g transform="scale(2.2546)">
<path d="m15967 15136-665.4 1164.3-665.3-1164.3h1330.7" fill="#151942"/>
</g>
<g transform="scale(2.3006)">
<path d="m16300 15974" fill="#69f"/>
</g>
<g transform="scale(2.3006)">
<path d="m16300 15974h-1304l652-1141 652 1141" fill="#1e213c"/>
</g>
<g transform="scale(2.3926)">
<path d="m15673 15360-626.9-1097.1h1253.8l-626.9 1097.1" fill="#303249"/>
</g>
<g transform="scale(2.3926)">
<path d="m15673 13165 626.9 1097.1h-1253.8l626.9-1097.1" fill="#22233f"/>
</g>
<g transform="scale(2.5767)">
<path d="m15718 4075 582.1 1018.8h-1164.3l582.2-1018.8" fill="#2c655b"/>
</g>
<g transform="scale(2.5767)">
<path d="m15718 4075h582.1v1018.8l-582.1-1018.8" fill="#2d5b57"/>
</g>
<g transform="scale(2.5767)">
<path d="m15136 5093.8h1164.3l-582.1 1018.8-582.2-1018.8" fill="#2d6e69"/>
</g>
<g transform="scale(2.5767)">
<path d="m15718 6112.5 582.1-1018.8v1018.8h-582.1" fill="#2a5a5b"/>
</g>
<g transform="scale(2.5767)">
<path d="m15718 8150 582.1 1018.8h-1164.3l582.2-1018.8" fill="#1b5b6c"/>
</g>
<g transform="scale(2.5767)">
<path d="m15718 8150h582.1v1018.8l-582.1-1018.8" fill="#20525a"/>
</g>
<g transform="scale(2.5767)">
<path d="m15136 9168.8h1164.3l-582.1 1018.8-582.2-1018.8" fill="#1a5364"/>
</g>
<g transform="scale(2.5767)">
<path d="m15718 10188 582.1-1018.8v1018.8h-582.1" fill="#1c4151"/>
</g>
<g transform="scale(2.5767)">
<path d="m15718 12225h582.1v1018.8l-582.1-1018.8" fill="#17243e"/>
</g>
<g transform="scale(2.5767)">
<path d="m15136 13244h1164.3l-582.1 1018.7-582.2-1018.7" fill="#16223d"/>
</g>
<g transform="scale(2.5767)">
<path d="m15718 14262 582.1-1018.7v1018.7h-582.1" fill="#2f1f33"/>
</g>
<g>
<path d="m0.0039062 5250h1500l-1500 2625h-0.074219l0.0039062-2625" fill="#1b5d69"/>
<path d="M 0,3663.3 V 0 H 0.00390625 V 3663.3 H 0" fill="#20515d"/>
<path d="m0 7875h0.074219l1500 2625h-1500v-2625" fill="#23525b"/>
<path d="m0 14330v-3829.9h0.0039062v3829.9h-0.0039062" fill="#475451"/>
</g>
<g transform="scale(1.1273)">
<path d="m0.0034651 13971h1330.6l-1330.6 2328.6h-0.065838l0.0034651-2328.6" fill="#415351"/>
</g>
<g transform="scale(1.2883)">
<path d="m0 14262h0.057608l1164.3 2037.5h-1164.3l-0.003032-2037.5" fill="#23565e"/>
</g>
<g transform="scale(1.7715)">
<path d="m0.0022051 14818h846.77l-846.72 1481.8h-0.052922v-1481.8" fill="#1b3a4c"/>
</g>
<g transform="scale(1.9325)">
<path d="m0.0020213 14942h0.048512-0.012128l776.17 1358.3h-776.21v-1358.3" fill="#182840"/>
</g>
<g transform="scale(2.4156)">
<path d="m0.0016171 15213h620.97l-620.94 1086.7h-0.030724l0.0016171-1086.7" fill="#14203a"/>
</g>
<g transform="scale(2.5767)">
<path d="m0 15281h0.028804l582.13 1018.8h-582.16v-1018.8" fill="#1c4951"/>
</g>
<path d="m0.0039062 0h1500l-1500 2625-0.070313-0.1v-2624.9" fill="#245561"/>
</g>
</g>
</svg>
